<!DOCTYPE svg PUBLIC "-//W3C//DTD SVG 1.1//EN" "http://www.w3.org/Graphics/SVG/1.1/DTD/svg11.dtd"><svg xmlns="http://www.w3.org/2000/svg" width="100" height="100" style="width: 100px; height: 100px; cursor: default; position: relative;"><defs id="defs_1"/><g opacity="1" transform="matrix(0.9000000000000035,0,0,0.9000000000000035,-413.2543209876563,-75.84074074074121)"><g opacity="1"/><g opacity="1"/><g opacity="1"/><g opacity="1"><g opacity="1" transform="matrix(1,0,0,1,51,149)"><circle opacity="1" stroke-width="1" stroke-opacity="1" fill-opacity="1" cx="0" cy="0" r="40" stroke="#5B8FF9" fill="#C6E5FF"/><circle opacity="1" stroke-width="1" stroke-opacity="1" fill-opacity="1" cx="-40" cy="0" r="5" fill="#fff" stroke="#1890FF"/><circle opacity="1" stroke-width="1" stroke-opacity="1" fill-opacity="1" cx="40" cy="0" r="5" fill="#fff" stroke="#1890FF"/><circle opacity="1" stroke-width="1" stroke-opacity="1" fill-opacity="1" cx="0" cy="-40" r="5" fill="#fff" stroke="#1890FF"/><circle opacity="1" stroke-width="1" stroke-opacity="1" fill-opacity="1" cx="0" cy="40" r="5" fill="#fff" stroke="#1890FF"/></g><g opacity="1" transform="matrix(1,0,0,1,145,148)"><ellipse opacity="1" stroke-width="1" stroke-opacity="1" fill-opacity="1" cx="0" cy="0" rx="40" ry="25" stroke="#5B8FF9" fill="#C6E5FF"/><circle opacity="1" stroke-width="1" stroke-opacity="1" fill-opacity="1" cx="-40" cy="0" r="5" fill="#fff" stroke="#1890FF"/><circle opacity="1" stroke-width="1" stroke-opacity="1" fill-opacity="1" cx="40" cy="0" r="5" fill="#fff" stroke="#1890FF"/><circle opacity="1" stroke-width="1" stroke-opacity="1" fill-opacity="1" cx="0" cy="-25" r="5" fill="#fff" stroke="#1890FF"/><circle opacity="1" stroke-width="1" stroke-opacity="1" fill-opacity="1" cx="0" cy="25" r="5" fill="#fff" stroke="#1890FF"/></g><g opacity="1" transform="matrix(1,0,0,1,218,146)"><path opacity="1" stroke-width="1" stroke-opacity="1" fill-opacity="1" d="M -40,-25 l 80,0 l 0,50 l-80 0 z" stroke="#5B8FF9" fill="#C6E5FF"/><circle opacity="1" stroke-width="1" stroke-opacity="1" fill-opacity="1" cx="-40" cy="0" r="5" fill="#fff" stroke="#1890FF"/><circle opacity="1" stroke-width="1" stroke-opacity="1" fill-opacity="1" cx="40" cy="0" r="5" fill="#fff" stroke="#1890FF"/><circle opacity="1" stroke-width="1" stroke-opacity="1" fill-opacity="1" cx="0" cy="-25" r="5" fill="#fff" stroke="#1890FF"/><circle opacity="1" stroke-width="1" stroke-opacity="1" fill-opacity="1" cx="0" cy="25" r="5" fill="#fff" stroke="#1890FF"/></g><g opacity="1" transform="matrix(1,0,0,1,390,151)"><path opacity="1" stroke-width="1" stroke-opacity="1" fill-opacity="1" d="M -43.30127018922193 43.30127018922193L 0 -43.30127018922193L 43.30127018922193 43.30127018922193Z" stroke="#5B8FF9" fill="#C6E5FF"/><circle opacity="1" stroke-width="1" stroke-opacity="1" fill-opacity="1" cx="-43.30127018922193" cy="43.30127018922193" r="5" fill="#fff" stroke="#1890FF"/><circle opacity="1" stroke-width="1" stroke-opacity="1" fill-opacity="1" cx="43.30127018922193" cy="43.30127018922193" r="5" fill="#fff" stroke="#1890FF"/><circle opacity="1" stroke-width="1" stroke-opacity="1" fill-opacity="1" cx="0" cy="-43.30127018922193" r="5" fill="#fff" stroke="#1890FF"/></g><g opacity="1" transform="matrix(1,0,0,1,515.875171467764,147.5089163237312)"><path opacity="1" stroke-width="1" stroke-opacity="1" fill-opacity="1" d="M 47.552825814757675 -15.450849718747369L 11.020973480483871 -15.169068644530265L 3.061616997868383e-15 -50L -11.02097348048387 -15.169068644530265L -47.552825814757675 -15.450849718747376L -17.832309680534127 5.79406864453027L -29.38926261462366 40.450849718747364L -3.4443191226019308e-15 18.75L 29.389262614623647 40.45084971874738L 17.832309680534127 5.794068644530268Z" stroke="#5B8FF9" fill="#C6E5FF"/><circle opacity="1" stroke-width="1" stroke-opacity="1" fill-opacity="1" cx="47.552825814757675" cy="-15.450849718747369" r="5" fill="#fff" stroke="#1890FF"/><circle opacity="1" stroke-width="1" stroke-opacity="1" fill-opacity="1" cx="3.061616997868383e-15" cy="-50" r="5" fill="#fff" stroke="#1890FF"/><circle opacity="1" stroke-width="1" stroke-opacity="1" fill-opacity="1" cx="-47.552825814757675" cy="-15.450849718747376" r="5" fill="#fff" stroke="#1890FF"/><circle opacity="1" stroke-width="1" stroke-opacity="1" fill-opacity="1" cx="-29.38926261462366" cy="40.450849718747364" r="5" fill="#fff" stroke="#1890FF"/><circle opacity="1" stroke-width="1" stroke-opacity="1" fill-opacity="1" cx="29.389262614623647" cy="40.45084971874738" r="5" fill="#fff" stroke="#1890FF"/></g><g opacity="1" transform="matrix(1,0,0,1,617.832647462277,147.2565157750343)"><path opacity="1" stroke-width="1" stroke-opacity="1" fill-opacity="1" d="M 0 -40L 30 0L 0 40L -30 0Z" stroke="#5B8FF9" fill="#C6E5FF"/><circle opacity="1" stroke-width="1" stroke-opacity="1" fill-opacity="1" cx="-30" cy="0" r="5" fill="#fff" stroke="#1890FF"/><circle opacity="1" stroke-width="1" stroke-opacity="1" fill-opacity="1" cx="30" cy="0" r="5" fill="#fff" stroke="#1890FF"/><circle opacity="1" stroke-width="1" stroke-opacity="1" fill-opacity="1" cx="0" cy="-40" r="5" fill="#fff" stroke="#1890FF"/><circle opacity="1" stroke-width="1" stroke-opacity="1" fill-opacity="1" cx="0" cy="40" r="5" fill="#fff" stroke="#1890FF"/></g></g><g opacity="1"/></g></svg>